<mxfile host="65bd71144e">
    <diagram id="jZQdlhtTkOkAwRcQDAUV" name="請求業務">
        <mxGraphModel dx="2396" dy="918" grid="1" gridSize="10" guides="1" tooltips="1" connect="1" arrows="1" fold="1" page="1" pageScale="1" pageWidth="827" pageHeight="1169" math="0" shadow="0">
            <root>
                <mxCell id="0"/>
                <mxCell id="1" style="locked=1;" parent="0"/>
                <mxCell id="2" value="" style="rounded=0;whiteSpace=wrap;html=1;strokeColor=#23445d;fillColor=#E6E6E6;" vertex="1" parent="1">
                    <mxGeometry width="1180" height="690" as="geometry"/>
                </mxCell>
                <mxCell id="3" value="" style="rounded=0;whiteSpace=wrap;html=1;" vertex="1" parent="1">
                    <mxGeometry width="1180" height="40" as="geometry"/>
                </mxCell>
                <mxCell id="4" value="&lt;font style=&quot;vertical-align: inherit&quot;&gt;&lt;font style=&quot;vertical-align: inherit ; font-size: 19px&quot;&gt;経費計上入力&lt;/font&gt;&lt;/font&gt;" style="text;html=1;strokeColor=none;fillColor=none;align=left;verticalAlign=middle;whiteSpace=wrap;rounded=0;fontSize=14;" vertex="1" parent="1">
                    <mxGeometry x="71.5" y="7" width="250" height="30" as="geometry"/>
                </mxCell>
                <mxCell id="5" value="" style="rounded=0;whiteSpace=wrap;html=1;fontSize=14;align=left;fillColor=#000000;gradientColor=#000000;" vertex="1" parent="1">
                    <mxGeometry x="1010" y="18" width="20" height="5" as="geometry"/>
                </mxCell>
                <mxCell id="6" value="" style="verticalLabelPosition=bottom;verticalAlign=top;html=1;shape=mxgraph.basic.frame;dx=2.52;fontSize=14;fillColor=#f5f5f5;gradientColor=#b3b3b3;strokeColor=#666666;" vertex="1" parent="1">
                    <mxGeometry x="1072.5" y="11" width="20" height="20" as="geometry"/>
                </mxCell>
                <mxCell id="7" value="" style="verticalLabelPosition=bottom;verticalAlign=top;html=1;shape=mxgraph.basic.x;fontSize=14;fillColor=#000000;gradientColor=#000000;" vertex="1" parent="1">
                    <mxGeometry x="1133" y="11" width="20" height="20" as="geometry"/>
                </mxCell>
                <mxCell id="8" value="" style="rhombus;whiteSpace=wrap;html=1;strokeWidth=2;fillWeight=-1;hachureGap=8;fillStyle=cross-hatch;fillColor=#006600;sketch=1;" vertex="1" parent="1">
                    <mxGeometry x="35" y="6.5" width="30" height="30" as="geometry"/>
                </mxCell>
                <mxCell id="9" value="" style="rounded=0;whiteSpace=wrap;html=1;" vertex="1" parent="1">
                    <mxGeometry width="1180" height="40" as="geometry"/>
                </mxCell>
                <mxCell id="10" value="&lt;span style=&quot;font-size: 19px&quot;&gt;ページタイトル&lt;/span&gt;" style="text;html=1;strokeColor=none;fillColor=none;align=left;verticalAlign=middle;whiteSpace=wrap;rounded=0;fontSize=14;" vertex="1" parent="1">
                    <mxGeometry x="71.5" y="7" width="250" height="30" as="geometry"/>
                </mxCell>
                <mxCell id="11" value="" style="rounded=0;whiteSpace=wrap;html=1;fontSize=14;align=left;fillColor=#000000;gradientColor=#000000;" vertex="1" parent="1">
                    <mxGeometry x="1010" y="18" width="20" height="5" as="geometry"/>
                </mxCell>
                <mxCell id="12" value="" style="verticalLabelPosition=bottom;verticalAlign=top;html=1;shape=mxgraph.basic.frame;dx=2.52;fontSize=14;fillColor=#f5f5f5;gradientColor=#b3b3b3;strokeColor=#666666;" vertex="1" parent="1">
                    <mxGeometry x="1072.5" y="11" width="20" height="20" as="geometry"/>
                </mxCell>
                <mxCell id="13" value="" style="verticalLabelPosition=bottom;verticalAlign=top;html=1;shape=mxgraph.basic.x;fontSize=14;fillColor=#000000;gradientColor=#000000;" vertex="1" parent="1">
                    <mxGeometry x="1133" y="11" width="20" height="20" as="geometry"/>
                </mxCell>
                <mxCell id="14" value="" style="rhombus;whiteSpace=wrap;html=1;strokeWidth=2;fillWeight=-1;hachureGap=8;fillStyle=cross-hatch;fillColor=#006600;sketch=1;" vertex="1" parent="1">
                    <mxGeometry x="35" y="6.5" width="30" height="30" as="geometry"/>
                </mxCell>
                <mxCell id="15" value="名称未設定レイヤ" style="" parent="0"/>
                <mxCell id="30" value="" style="rounded=0;whiteSpace=wrap;html=1;" vertex="1" parent="15">
                    <mxGeometry x="610" y="100" width="120" height="60" as="geometry"/>
                </mxCell>
            </root>
        </mxGraphModel>
    </diagram>
    <diagram id="WdpAi_-_n9M5l99DLBqp" name="支払業務">
        <mxGraphModel dx="1198" dy="459" grid="1" gridSize="10" guides="1" tooltips="1" connect="1" arrows="1" fold="1" page="1" pageScale="1" pageWidth="827" pageHeight="1169" math="0" shadow="0">
            <root>
                <mxCell id="VWLXJsOWGgq14WcSwE07-0"/>
                <mxCell id="VWLXJsOWGgq14WcSwE07-1" parent="VWLXJsOWGgq14WcSwE07-0"/>
            </root>
        </mxGraphModel>
    </diagram>
    <diagram id="Nu-oy7OcdGvyn7yufdTW" name="経費入力">
        <mxGraphModel dx="2396" dy="918" grid="1" gridSize="10" guides="1" tooltips="1" connect="1" arrows="1" fold="1" page="1" pageScale="1" pageWidth="827" pageHeight="1169" math="0" shadow="0">
            <root>
                <mxCell id="1xpMTbBMg0d53cnwjYNg-0"/>
                <mxCell id="1xpMTbBMg0d53cnwjYNg-1" style="locked=1;" parent="1xpMTbBMg0d53cnwjYNg-0"/>
                <mxCell id="1xpMTbBMg0d53cnwjYNg-232" value="" style="rounded=0;whiteSpace=wrap;html=1;strokeColor=#23445d;fillColor=#E6E6E6;" vertex="1" parent="1xpMTbBMg0d53cnwjYNg-1">
                    <mxGeometry width="1180" height="690" as="geometry"/>
                </mxCell>
                <mxCell id="1xpMTbBMg0d53cnwjYNg-233" value="" style="rounded=0;whiteSpace=wrap;html=1;" vertex="1" parent="1xpMTbBMg0d53cnwjYNg-1">
                    <mxGeometry width="1180" height="40" as="geometry"/>
                </mxCell>
                <mxCell id="1xpMTbBMg0d53cnwjYNg-234" value="&lt;font style=&quot;vertical-align: inherit&quot;&gt;&lt;font style=&quot;vertical-align: inherit ; font-size: 19px&quot;&gt;経費計上入力&lt;/font&gt;&lt;/font&gt;" style="text;html=1;strokeColor=none;fillColor=none;align=left;verticalAlign=middle;whiteSpace=wrap;rounded=0;fontSize=14;" vertex="1" parent="1xpMTbBMg0d53cnwjYNg-1">
                    <mxGeometry x="71.5" y="7" width="250" height="30" as="geometry"/>
                </mxCell>
                <mxCell id="1xpMTbBMg0d53cnwjYNg-235" value="" style="rounded=0;whiteSpace=wrap;html=1;fontSize=14;align=left;fillColor=#000000;gradientColor=#000000;" vertex="1" parent="1xpMTbBMg0d53cnwjYNg-1">
                    <mxGeometry x="1010" y="18" width="20" height="5" as="geometry"/>
                </mxCell>
                <mxCell id="1xpMTbBMg0d53cnwjYNg-236" value="" style="verticalLabelPosition=bottom;verticalAlign=top;html=1;shape=mxgraph.basic.frame;dx=2.52;fontSize=14;fillColor=#f5f5f5;gradientColor=#b3b3b3;strokeColor=#666666;" vertex="1" parent="1xpMTbBMg0d53cnwjYNg-1">
                    <mxGeometry x="1072.5" y="11" width="20" height="20" as="geometry"/>
                </mxCell>
                <mxCell id="1xpMTbBMg0d53cnwjYNg-237" value="" style="verticalLabelPosition=bottom;verticalAlign=top;html=1;shape=mxgraph.basic.x;fontSize=14;fillColor=#000000;gradientColor=#000000;" vertex="1" parent="1xpMTbBMg0d53cnwjYNg-1">
                    <mxGeometry x="1133" y="11" width="20" height="20" as="geometry"/>
                </mxCell>
                <mxCell id="1xpMTbBMg0d53cnwjYNg-238" value="" style="rhombus;whiteSpace=wrap;html=1;strokeWidth=2;fillWeight=-1;hachureGap=8;fillStyle=cross-hatch;fillColor=#006600;sketch=1;" vertex="1" parent="1xpMTbBMg0d53cnwjYNg-1">
                    <mxGeometry x="35" y="6.5" width="30" height="30" as="geometry"/>
                </mxCell>
                <mxCell id="1xpMTbBMg0d53cnwjYNg-2" value="名称未設定レイヤ" style="locked=1;" parent="1xpMTbBMg0d53cnwjYNg-0"/>
                <mxCell id="1xpMTbBMg0d53cnwjYNg-3" value="" style="rounded=0;whiteSpace=wrap;html=1;" vertex="1" parent="1xpMTbBMg0d53cnwjYNg-2">
                    <mxGeometry width="1180" height="40" as="geometry"/>
                </mxCell>
                <mxCell id="1xpMTbBMg0d53cnwjYNg-4" value="" style="whiteSpace=wrap;html=1;aspect=fixed;" vertex="1" parent="1xpMTbBMg0d53cnwjYNg-2">
                    <mxGeometry x="30" y="80" width="70" height="70" as="geometry"/>
                </mxCell>
                <mxCell id="1xpMTbBMg0d53cnwjYNg-5" value="" style="whiteSpace=wrap;html=1;aspect=fixed;" vertex="1" parent="1xpMTbBMg0d53cnwjYNg-2">
                    <mxGeometry x="130" y="80" width="70" height="70" as="geometry"/>
                </mxCell>
                <mxCell id="1xpMTbBMg0d53cnwjYNg-6" value="" style="whiteSpace=wrap;html=1;aspect=fixed;" vertex="1" parent="1xpMTbBMg0d53cnwjYNg-2">
                    <mxGeometry x="230" y="80" width="70" height="70" as="geometry"/>
                </mxCell>
                <mxCell id="1xpMTbBMg0d53cnwjYNg-7" value="" style="whiteSpace=wrap;html=1;aspect=fixed;" vertex="1" parent="1xpMTbBMg0d53cnwjYNg-2">
                    <mxGeometry x="324" y="80" width="70" height="70" as="geometry"/>
                </mxCell>
                <mxCell id="1xpMTbBMg0d53cnwjYNg-8" value="" style="whiteSpace=wrap;html=1;aspect=fixed;" vertex="1" parent="1xpMTbBMg0d53cnwjYNg-2">
                    <mxGeometry x="420" y="80" width="70" height="70" as="geometry"/>
                </mxCell>
                <mxCell id="1xpMTbBMg0d53cnwjYNg-9" value="登録" style="text;html=1;strokeColor=none;fillColor=none;align=center;verticalAlign=middle;whiteSpace=wrap;rounded=0;fontSize=18;" vertex="1" parent="1xpMTbBMg0d53cnwjYNg-2">
                    <mxGeometry x="35" y="111" width="60" height="30" as="geometry"/>
                </mxCell>
                <mxCell id="1xpMTbBMg0d53cnwjYNg-10" value="&lt;font style=&quot;font-size: 14px&quot;&gt;プリンタ&lt;/font&gt;" style="text;html=1;strokeColor=none;fillColor=none;align=center;verticalAlign=middle;whiteSpace=wrap;rounded=0;fontSize=18;" vertex="1" parent="1xpMTbBMg0d53cnwjYNg-2">
                    <mxGeometry x="135" y="111" width="60" height="30" as="geometry"/>
                </mxCell>
                <mxCell id="1xpMTbBMg0d53cnwjYNg-11" value="削除&lt;span style=&quot;color: rgba(0 , 0 , 0 , 0) ; font-family: monospace ; font-size: 0px&quot;&gt;%3CmxGraphModel%3E%3Croot%3E%3CmxCell%20id%3D%220%22%2F%3E%3CmxCell%20id%3D%221%22%20parent%3D%220%22%2F%3E%3CmxCell%20id%3D%222%22%20value%3D%22%E7%99%BB%E9%8C%B2%22%20style%3D%22text%3Bhtml%3D1%3BstrokeColor%3Dnone%3BfillColor%3Dnone%3Balign%3Dcenter%3BverticalAlign%3Dmiddle%3BwhiteSpace%3Dwrap%3Brounded%3D0%3BfontSize%3D18%3B%22%20vertex%3D%221%22%20parent%3D%221%22%3E%3CmxGeometry%20x%3D%22125%22%20y%3D%22131%22%20width%3D%2260%22%20height%3D%2230%22%20as%3D%22geometry%22%2F%3E%3C%2FmxCell%3E%3C%2Froot%3E%3C%2FmxGraphModel%3E&lt;/span&gt;&lt;span style=&quot;color: rgba(0 , 0 , 0 , 0) ; font-family: monospace ; font-size: 0px&quot;&gt;%3CmxGraphModel%3E%3Croot%3E%3CmxCell%20id%3D%220%22%2F%3E%3CmxCell%20id%3D%221%22%20parent%3D%220%22%2F%3E%3CmxCell%20id%3D%222%22%20value%3D%22%E7%99%BB%E9%8C%B2%22%20style%3D%22text%3Bhtml%3D1%3BstrokeColor%3Dnone%3BfillColor%3Dnone%3Balign%3Dcenter%3BverticalAlign%3Dmiddle%3BwhiteSpace%3Dwrap%3Brounded%3D0%3BfontSize%3D18%3B%22%20vertex%3D%221%22%20parent%3D%221%22%3E%3CmxGeometry%20x%3D%22125%22%20y%3D%22131%22%20width%3D%2260%22%20height%3D%2230%22%20as%3D%22geometry%22%2F%3E%3C%2FmxCell%3E%3C%2Froot%3E%3C%2FmxGraphModel%3E&lt;/span&gt;" style="text;html=1;strokeColor=none;fillColor=none;align=center;verticalAlign=middle;whiteSpace=wrap;rounded=0;fontSize=18;" vertex="1" parent="1xpMTbBMg0d53cnwjYNg-2">
                    <mxGeometry x="235" y="111" width="60" height="30" as="geometry"/>
                </mxCell>
                <mxCell id="1xpMTbBMg0d53cnwjYNg-12" value="検索" style="text;html=1;strokeColor=none;fillColor=none;align=center;verticalAlign=middle;whiteSpace=wrap;rounded=0;fontSize=18;" vertex="1" parent="1xpMTbBMg0d53cnwjYNg-2">
                    <mxGeometry x="329" y="111" width="60" height="30" as="geometry"/>
                </mxCell>
                <mxCell id="1xpMTbBMg0d53cnwjYNg-13" value="終了" style="text;html=1;strokeColor=none;fillColor=none;align=center;verticalAlign=middle;whiteSpace=wrap;rounded=0;fontSize=18;" vertex="1" parent="1xpMTbBMg0d53cnwjYNg-2">
                    <mxGeometry x="425" y="110" width="60" height="31" as="geometry"/>
                </mxCell>
                <mxCell id="1xpMTbBMg0d53cnwjYNg-14" value="&lt;font style=&quot;vertical-align: inherit&quot;&gt;&lt;font style=&quot;vertical-align: inherit ; font-size: 19px&quot;&gt;経費計上入力&lt;/font&gt;&lt;/font&gt;" style="text;html=1;strokeColor=none;fillColor=none;align=left;verticalAlign=middle;whiteSpace=wrap;rounded=0;fontSize=14;" vertex="1" parent="1xpMTbBMg0d53cnwjYNg-2">
                    <mxGeometry x="71.5" y="7" width="250" height="30" as="geometry"/>
                </mxCell>
                <mxCell id="1xpMTbBMg0d53cnwjYNg-15" value="" style="rounded=0;whiteSpace=wrap;html=1;fontSize=14;fillColor=#f5f5f5;strokeColor=#666666;gradientColor=#b3b3b3;" vertex="1" parent="1xpMTbBMg0d53cnwjYNg-2">
                    <mxGeometry x="50" y="170" width="120" height="20" as="geometry"/>
                </mxCell>
                <mxCell id="1xpMTbBMg0d53cnwjYNg-16" value="" style="rounded=0;whiteSpace=wrap;html=1;fontSize=14;" vertex="1" parent="1xpMTbBMg0d53cnwjYNg-2">
                    <mxGeometry x="170" y="170" width="110" height="20" as="geometry"/>
                </mxCell>
                <mxCell id="1xpMTbBMg0d53cnwjYNg-17" value="" style="rounded=0;whiteSpace=wrap;html=1;fontSize=14;fillColor=#f5f5f5;strokeColor=#666666;gradientColor=#b3b3b3;" vertex="1" parent="1xpMTbBMg0d53cnwjYNg-2">
                    <mxGeometry x="300" y="170" width="120" height="20" as="geometry"/>
                </mxCell>
                <mxCell id="1xpMTbBMg0d53cnwjYNg-18" value="" style="rounded=0;whiteSpace=wrap;html=1;fontSize=14;" vertex="1" parent="1xpMTbBMg0d53cnwjYNg-2">
                    <mxGeometry x="420" y="170" width="160" height="20" as="geometry"/>
                </mxCell>
                <mxCell id="1xpMTbBMg0d53cnwjYNg-19" value="" style="rounded=0;whiteSpace=wrap;html=1;fontSize=14;fillColor=#f5f5f5;strokeColor=#666666;gradientColor=#b3b3b3;" vertex="1" parent="1xpMTbBMg0d53cnwjYNg-2">
                    <mxGeometry x="597" y="170" width="120" height="20" as="geometry"/>
                </mxCell>
                <mxCell id="1xpMTbBMg0d53cnwjYNg-20" value="" style="rounded=0;whiteSpace=wrap;html=1;fontSize=14;" vertex="1" parent="1xpMTbBMg0d53cnwjYNg-2">
                    <mxGeometry x="718" y="170" width="70" height="20" as="geometry"/>
                </mxCell>
                <mxCell id="1xpMTbBMg0d53cnwjYNg-21" value="" style="rounded=0;whiteSpace=wrap;html=1;fontSize=14;" vertex="1" parent="1xpMTbBMg0d53cnwjYNg-2">
                    <mxGeometry x="794" y="170" width="120" height="20" as="geometry"/>
                </mxCell>
                <mxCell id="1xpMTbBMg0d53cnwjYNg-22" value="&lt;font style=&quot;vertical-align: inherit&quot;&gt;&lt;font style=&quot;vertical-align: inherit&quot;&gt;000000001&lt;/font&gt;&lt;/font&gt;" style="text;html=1;align=center;verticalAlign=middle;resizable=0;points=[];autosize=1;strokeColor=none;fillColor=none;fontSize=14;" vertex="1" parent="1xpMTbBMg0d53cnwjYNg-2">
                    <mxGeometry x="182.5" y="170" width="90" height="20" as="geometry"/>
                </mxCell>
                <mxCell id="1xpMTbBMg0d53cnwjYNg-23" value="2018年 02月28日" style="text;html=1;align=center;verticalAlign=middle;resizable=0;points=[];autosize=1;strokeColor=none;fillColor=none;fontSize=14;" vertex="1" parent="1xpMTbBMg0d53cnwjYNg-2">
                    <mxGeometry x="442.5" y="170" width="120" height="20" as="geometry"/>
                </mxCell>
                <mxCell id="1xpMTbBMg0d53cnwjYNg-24" value="000001" style="text;html=1;align=center;verticalAlign=middle;resizable=0;points=[];autosize=1;strokeColor=none;fillColor=none;fontSize=14;" vertex="1" parent="1xpMTbBMg0d53cnwjYNg-2">
                    <mxGeometry x="724" y="170" width="60" height="20" as="geometry"/>
                </mxCell>
                <mxCell id="1xpMTbBMg0d53cnwjYNg-25" value="伊藤博文" style="text;html=1;align=center;verticalAlign=middle;resizable=0;points=[];autosize=1;strokeColor=none;fillColor=none;fontSize=14;fontColor=#3399FF;" vertex="1" parent="1xpMTbBMg0d53cnwjYNg-2">
                    <mxGeometry x="819" y="170" width="70" height="20" as="geometry"/>
                </mxCell>
                <mxCell id="1xpMTbBMg0d53cnwjYNg-26" value="" style="rounded=0;whiteSpace=wrap;html=1;fontSize=14;align=left;" vertex="1" parent="1xpMTbBMg0d53cnwjYNg-2">
                    <mxGeometry x="1062.5" y="231" width="20" height="29" as="geometry"/>
                </mxCell>
                <mxCell id="1xpMTbBMg0d53cnwjYNg-27" value="" style="rounded=0;whiteSpace=wrap;html=1;fontSize=14;align=left;" vertex="1" parent="1xpMTbBMg0d53cnwjYNg-2">
                    <mxGeometry x="1062.5" y="495.5" width="20" height="29" as="geometry"/>
                </mxCell>
                <mxCell id="1xpMTbBMg0d53cnwjYNg-28" value="＞" style="text;html=1;align=center;verticalAlign=middle;resizable=0;points=[];autosize=1;strokeColor=none;fillColor=none;fontSize=14;rotation=-90;" vertex="1" parent="1xpMTbBMg0d53cnwjYNg-2">
                    <mxGeometry x="1058.5" y="235.5" width="30" height="20" as="geometry"/>
                </mxCell>
                <mxCell id="1xpMTbBMg0d53cnwjYNg-29" value="＞" style="text;html=1;align=center;verticalAlign=middle;resizable=0;points=[];autosize=1;strokeColor=none;fillColor=none;fontSize=14;rotation=90;" vertex="1" parent="1xpMTbBMg0d53cnwjYNg-2">
                    <mxGeometry x="1059.5" y="504.5" width="30" height="20" as="geometry"/>
                </mxCell>
                <mxCell id="1xpMTbBMg0d53cnwjYNg-30" value="" style="rounded=0;whiteSpace=wrap;html=1;fontSize=14;align=left;" vertex="1" parent="1xpMTbBMg0d53cnwjYNg-2">
                    <mxGeometry x="1062.5" y="261" width="20" height="234.5" as="geometry"/>
                </mxCell>
                <mxCell id="1xpMTbBMg0d53cnwjYNg-31" value="" style="rounded=0;whiteSpace=wrap;html=1;fontSize=14;align=left;fillColor=#647687;fontColor=#ffffff;strokeColor=#314354;" vertex="1" parent="1xpMTbBMg0d53cnwjYNg-2">
                    <mxGeometry x="1062.5" y="261" width="20" height="50" as="geometry"/>
                </mxCell>
                <mxCell id="1xpMTbBMg0d53cnwjYNg-32" value="" style="rounded=0;whiteSpace=wrap;html=1;fontSize=14;align=left;fillColor=#f5f5f5;gradientColor=#b3b3b3;strokeColor=#666666;" vertex="1" parent="1xpMTbBMg0d53cnwjYNg-2">
                    <mxGeometry x="50" y="230" width="60" height="20" as="geometry"/>
                </mxCell>
                <mxCell id="1xpMTbBMg0d53cnwjYNg-33" value="" style="rounded=0;whiteSpace=wrap;html=1;fontSize=14;align=left;" vertex="1" parent="1xpMTbBMg0d53cnwjYNg-2">
                    <mxGeometry x="50" y="310" width="60" height="20" as="geometry"/>
                </mxCell>
                <mxCell id="1xpMTbBMg0d53cnwjYNg-34" value="" style="rounded=0;whiteSpace=wrap;html=1;fontSize=14;align=left;" vertex="1" parent="1xpMTbBMg0d53cnwjYNg-2">
                    <mxGeometry x="50" y="290" width="60" height="20" as="geometry"/>
                </mxCell>
                <mxCell id="1xpMTbBMg0d53cnwjYNg-35" value="" style="rounded=0;whiteSpace=wrap;html=1;fontSize=14;align=left;" vertex="1" parent="1xpMTbBMg0d53cnwjYNg-2">
                    <mxGeometry x="50" y="250" width="60" height="20" as="geometry"/>
                </mxCell>
                <mxCell id="1xpMTbBMg0d53cnwjYNg-36" value="" style="rounded=0;whiteSpace=wrap;html=1;fontSize=14;align=left;fillColor=#f5f5f5;gradientColor=#b3b3b3;strokeColor=#666666;" vertex="1" parent="1xpMTbBMg0d53cnwjYNg-2">
                    <mxGeometry x="110" y="230.5" width="220" height="20" as="geometry"/>
                </mxCell>
                <mxCell id="1xpMTbBMg0d53cnwjYNg-37" value="" style="rounded=0;whiteSpace=wrap;html=1;fontSize=14;align=left;fillColor=#f5f5f5;gradientColor=#b3b3b3;strokeColor=#666666;" vertex="1" parent="1xpMTbBMg0d53cnwjYNg-2">
                    <mxGeometry x="330" y="230.5" width="90" height="20" as="geometry"/>
                </mxCell>
                <mxCell id="1xpMTbBMg0d53cnwjYNg-38" value="" style="rounded=0;whiteSpace=wrap;html=1;fontSize=14;align=left;" vertex="1" parent="1xpMTbBMg0d53cnwjYNg-2">
                    <mxGeometry x="50" y="270" width="60" height="20" as="geometry"/>
                </mxCell>
                <mxCell id="1xpMTbBMg0d53cnwjYNg-39" value="" style="rounded=0;whiteSpace=wrap;html=1;fontSize=14;align=left;" vertex="1" parent="1xpMTbBMg0d53cnwjYNg-2">
                    <mxGeometry x="50" y="390" width="60" height="20" as="geometry"/>
                </mxCell>
                <mxCell id="1xpMTbBMg0d53cnwjYNg-40" value="" style="rounded=0;whiteSpace=wrap;html=1;fontSize=14;align=left;" vertex="1" parent="1xpMTbBMg0d53cnwjYNg-2">
                    <mxGeometry x="50" y="370" width="60" height="20" as="geometry"/>
                </mxCell>
                <mxCell id="1xpMTbBMg0d53cnwjYNg-41" value="" style="rounded=0;whiteSpace=wrap;html=1;fontSize=14;align=left;" vertex="1" parent="1xpMTbBMg0d53cnwjYNg-2">
                    <mxGeometry x="50" y="330" width="60" height="20" as="geometry"/>
                </mxCell>
                <mxCell id="1xpMTbBMg0d53cnwjYNg-42" value="" style="rounded=0;whiteSpace=wrap;html=1;fontSize=14;align=left;" vertex="1" parent="1xpMTbBMg0d53cnwjYNg-2">
                    <mxGeometry x="50" y="350" width="60" height="20" as="geometry"/>
                </mxCell>
                <mxCell id="1xpMTbBMg0d53cnwjYNg-43" value="" style="rounded=0;whiteSpace=wrap;html=1;fontSize=14;align=left;" vertex="1" parent="1xpMTbBMg0d53cnwjYNg-2">
                    <mxGeometry x="50" y="470" width="60" height="20" as="geometry"/>
                </mxCell>
                <mxCell id="1xpMTbBMg0d53cnwjYNg-44" value="" style="rounded=0;whiteSpace=wrap;html=1;fontSize=14;align=left;" vertex="1" parent="1xpMTbBMg0d53cnwjYNg-2">
                    <mxGeometry x="50" y="450" width="60" height="20" as="geometry"/>
                </mxCell>
                <mxCell id="1xpMTbBMg0d53cnwjYNg-45" value="" style="rounded=0;whiteSpace=wrap;html=1;fontSize=14;align=left;" vertex="1" parent="1xpMTbBMg0d53cnwjYNg-2">
                    <mxGeometry x="50" y="410" width="60" height="20" as="geometry"/>
                </mxCell>
                <mxCell id="1xpMTbBMg0d53cnwjYNg-46" value="" style="rounded=0;whiteSpace=wrap;html=1;fontSize=14;align=left;" vertex="1" parent="1xpMTbBMg0d53cnwjYNg-2">
                    <mxGeometry x="50" y="430" width="60" height="20" as="geometry"/>
                </mxCell>
                <mxCell id="1xpMTbBMg0d53cnwjYNg-47" value="" style="rounded=0;whiteSpace=wrap;html=1;fontSize=14;align=left;" vertex="1" parent="1xpMTbBMg0d53cnwjYNg-2">
                    <mxGeometry x="110" y="250.5" width="220" height="20" as="geometry"/>
                </mxCell>
                <mxCell id="1xpMTbBMg0d53cnwjYNg-48" value="" style="rounded=0;whiteSpace=wrap;html=1;fontSize=14;align=left;" vertex="1" parent="1xpMTbBMg0d53cnwjYNg-2">
                    <mxGeometry x="110" y="270.5" width="220" height="20" as="geometry"/>
                </mxCell>
                <mxCell id="1xpMTbBMg0d53cnwjYNg-49" value="" style="rounded=0;whiteSpace=wrap;html=1;fontSize=14;align=left;" vertex="1" parent="1xpMTbBMg0d53cnwjYNg-2">
                    <mxGeometry x="110" y="290.5" width="220" height="20" as="geometry"/>
                </mxCell>
                <mxCell id="1xpMTbBMg0d53cnwjYNg-50" value="" style="rounded=0;whiteSpace=wrap;html=1;fontSize=14;align=left;" vertex="1" parent="1xpMTbBMg0d53cnwjYNg-2">
                    <mxGeometry x="110" y="310.5" width="220" height="20" as="geometry"/>
                </mxCell>
                <mxCell id="1xpMTbBMg0d53cnwjYNg-51" value="" style="rounded=0;whiteSpace=wrap;html=1;fontSize=14;align=left;" vertex="1" parent="1xpMTbBMg0d53cnwjYNg-2">
                    <mxGeometry x="110" y="330.5" width="220" height="20" as="geometry"/>
                </mxCell>
                <mxCell id="1xpMTbBMg0d53cnwjYNg-52" value="" style="rounded=0;whiteSpace=wrap;html=1;fontSize=14;align=left;" vertex="1" parent="1xpMTbBMg0d53cnwjYNg-2">
                    <mxGeometry x="110" y="350.5" width="220" height="20" as="geometry"/>
                </mxCell>
                <mxCell id="1xpMTbBMg0d53cnwjYNg-53" value="" style="rounded=0;whiteSpace=wrap;html=1;fontSize=14;align=left;" vertex="1" parent="1xpMTbBMg0d53cnwjYNg-2">
                    <mxGeometry x="110" y="370.5" width="220" height="20" as="geometry"/>
                </mxCell>
                <mxCell id="1xpMTbBMg0d53cnwjYNg-54" value="" style="rounded=0;whiteSpace=wrap;html=1;fontSize=14;align=left;" vertex="1" parent="1xpMTbBMg0d53cnwjYNg-2">
                    <mxGeometry x="110" y="390.5" width="220" height="20" as="geometry"/>
                </mxCell>
                <mxCell id="1xpMTbBMg0d53cnwjYNg-55" value="" style="rounded=0;whiteSpace=wrap;html=1;fontSize=14;align=left;" vertex="1" parent="1xpMTbBMg0d53cnwjYNg-2">
                    <mxGeometry x="110" y="450.5" width="220" height="20" as="geometry"/>
                </mxCell>
                <mxCell id="1xpMTbBMg0d53cnwjYNg-56" value="" style="rounded=0;whiteSpace=wrap;html=1;fontSize=14;align=left;" vertex="1" parent="1xpMTbBMg0d53cnwjYNg-2">
                    <mxGeometry x="110" y="470.5" width="220" height="20" as="geometry"/>
                </mxCell>
                <mxCell id="1xpMTbBMg0d53cnwjYNg-57" value="" style="rounded=0;whiteSpace=wrap;html=1;fontSize=14;align=left;" vertex="1" parent="1xpMTbBMg0d53cnwjYNg-2">
                    <mxGeometry x="110" y="410.5" width="220" height="20" as="geometry"/>
                </mxCell>
                <mxCell id="1xpMTbBMg0d53cnwjYNg-58" value="" style="rounded=0;whiteSpace=wrap;html=1;fontSize=14;align=left;" vertex="1" parent="1xpMTbBMg0d53cnwjYNg-2">
                    <mxGeometry x="110" y="430.5" width="220" height="20" as="geometry"/>
                </mxCell>
                <mxCell id="1xpMTbBMg0d53cnwjYNg-59" value="" style="rounded=0;whiteSpace=wrap;html=1;fontSize=14;align=left;fillColor=#f5f5f5;gradientColor=#b3b3b3;strokeColor=#666666;" vertex="1" parent="1xpMTbBMg0d53cnwjYNg-2">
                    <mxGeometry x="418.5" y="230.5" width="110" height="20" as="geometry"/>
                </mxCell>
                <mxCell id="1xpMTbBMg0d53cnwjYNg-60" value="001" style="text;html=1;align=center;verticalAlign=middle;resizable=0;points=[];autosize=1;strokeColor=none;fillColor=none;fontSize=14;" vertex="1" parent="1xpMTbBMg0d53cnwjYNg-2">
                    <mxGeometry x="60" y="250" width="40" height="20" as="geometry"/>
                </mxCell>
                <mxCell id="1xpMTbBMg0d53cnwjYNg-61" value="002" style="text;html=1;align=center;verticalAlign=middle;resizable=0;points=[];autosize=1;strokeColor=none;fillColor=none;fontSize=14;" vertex="1" parent="1xpMTbBMg0d53cnwjYNg-2">
                    <mxGeometry x="60" y="270" width="40" height="20" as="geometry"/>
                </mxCell>
                <mxCell id="1xpMTbBMg0d53cnwjYNg-62" value="003" style="text;html=1;align=center;verticalAlign=middle;resizable=0;points=[];autosize=1;strokeColor=none;fillColor=none;fontSize=14;" vertex="1" parent="1xpMTbBMg0d53cnwjYNg-2">
                    <mxGeometry x="60" y="290" width="40" height="20" as="geometry"/>
                </mxCell>
                <mxCell id="1xpMTbBMg0d53cnwjYNg-63" value="001" style="text;html=1;align=center;verticalAlign=middle;resizable=0;points=[];autosize=1;strokeColor=none;fillColor=none;fontSize=14;" vertex="1" parent="1xpMTbBMg0d53cnwjYNg-2">
                    <mxGeometry x="60" y="310" width="40" height="20" as="geometry"/>
                </mxCell>
                <mxCell id="1xpMTbBMg0d53cnwjYNg-64" value="001" style="text;html=1;align=center;verticalAlign=middle;resizable=0;points=[];autosize=1;strokeColor=none;fillColor=none;fontSize=14;" vertex="1" parent="1xpMTbBMg0d53cnwjYNg-2">
                    <mxGeometry x="60" y="330" width="40" height="20" as="geometry"/>
                </mxCell>
                <mxCell id="1xpMTbBMg0d53cnwjYNg-65" value="" style="rounded=0;whiteSpace=wrap;html=1;fontSize=14;align=left;" vertex="1" parent="1xpMTbBMg0d53cnwjYNg-2">
                    <mxGeometry x="50" y="410" width="60" height="20" as="geometry"/>
                </mxCell>
                <mxCell id="1xpMTbBMg0d53cnwjYNg-66" value="" style="rounded=0;whiteSpace=wrap;html=1;fontSize=14;align=left;" vertex="1" parent="1xpMTbBMg0d53cnwjYNg-2">
                    <mxGeometry x="50" y="390" width="60" height="20" as="geometry"/>
                </mxCell>
                <mxCell id="1xpMTbBMg0d53cnwjYNg-67" value="" style="rounded=0;whiteSpace=wrap;html=1;fontSize=14;align=left;" vertex="1" parent="1xpMTbBMg0d53cnwjYNg-2">
                    <mxGeometry x="50" y="350" width="60" height="20" as="geometry"/>
                </mxCell>
                <mxCell id="1xpMTbBMg0d53cnwjYNg-68" value="" style="rounded=0;whiteSpace=wrap;html=1;fontSize=14;align=left;" vertex="1" parent="1xpMTbBMg0d53cnwjYNg-2">
                    <mxGeometry x="50" y="370" width="60" height="20" as="geometry"/>
                </mxCell>
                <mxCell id="1xpMTbBMg0d53cnwjYNg-69" value="" style="rounded=0;whiteSpace=wrap;html=1;fontSize=14;align=left;" vertex="1" parent="1xpMTbBMg0d53cnwjYNg-2">
                    <mxGeometry x="50" y="470" width="60" height="20" as="geometry"/>
                </mxCell>
                <mxCell id="1xpMTbBMg0d53cnwjYNg-70" value="" style="rounded=0;whiteSpace=wrap;html=1;fontSize=14;align=left;" vertex="1" parent="1xpMTbBMg0d53cnwjYNg-2">
                    <mxGeometry x="50" y="430" width="60" height="20" as="geometry"/>
                </mxCell>
                <mxCell id="1xpMTbBMg0d53cnwjYNg-71" value="" style="rounded=0;whiteSpace=wrap;html=1;fontSize=14;align=left;" vertex="1" parent="1xpMTbBMg0d53cnwjYNg-2">
                    <mxGeometry x="50" y="450" width="60" height="20" as="geometry"/>
                </mxCell>
                <mxCell id="1xpMTbBMg0d53cnwjYNg-72" value="001" style="text;html=1;align=center;verticalAlign=middle;resizable=0;points=[];autosize=1;strokeColor=none;fillColor=none;fontSize=14;" vertex="1" parent="1xpMTbBMg0d53cnwjYNg-2">
                    <mxGeometry x="60" y="350" width="40" height="20" as="geometry"/>
                </mxCell>
                <mxCell id="1xpMTbBMg0d53cnwjYNg-73" value="001" style="text;html=1;align=center;verticalAlign=middle;resizable=0;points=[];autosize=1;strokeColor=none;fillColor=none;fontSize=14;" vertex="1" parent="1xpMTbBMg0d53cnwjYNg-2">
                    <mxGeometry x="60" y="370" width="40" height="20" as="geometry"/>
                </mxCell>
                <mxCell id="1xpMTbBMg0d53cnwjYNg-74" value="001" style="text;html=1;align=center;verticalAlign=middle;resizable=0;points=[];autosize=1;strokeColor=none;fillColor=none;fontSize=14;" vertex="1" parent="1xpMTbBMg0d53cnwjYNg-2">
                    <mxGeometry x="60" y="390" width="40" height="20" as="geometry"/>
                </mxCell>
                <mxCell id="1xpMTbBMg0d53cnwjYNg-75" value="001" style="text;html=1;align=center;verticalAlign=middle;resizable=0;points=[];autosize=1;strokeColor=none;fillColor=none;fontSize=14;" vertex="1" parent="1xpMTbBMg0d53cnwjYNg-2">
                    <mxGeometry x="60" y="410" width="40" height="20" as="geometry"/>
                </mxCell>
                <mxCell id="1xpMTbBMg0d53cnwjYNg-76" value="001" style="text;html=1;align=center;verticalAlign=middle;resizable=0;points=[];autosize=1;strokeColor=none;fillColor=none;fontSize=14;" vertex="1" parent="1xpMTbBMg0d53cnwjYNg-2">
                    <mxGeometry x="60" y="430" width="40" height="20" as="geometry"/>
                </mxCell>
                <mxCell id="1xpMTbBMg0d53cnwjYNg-77" value="001" style="text;html=1;align=center;verticalAlign=middle;resizable=0;points=[];autosize=1;strokeColor=none;fillColor=none;fontSize=14;" vertex="1" parent="1xpMTbBMg0d53cnwjYNg-2">
                    <mxGeometry x="60" y="450" width="40" height="20" as="geometry"/>
                </mxCell>
                <mxCell id="1xpMTbBMg0d53cnwjYNg-78" value="001" style="text;html=1;align=center;verticalAlign=middle;resizable=0;points=[];autosize=1;strokeColor=none;fillColor=none;fontSize=14;" vertex="1" parent="1xpMTbBMg0d53cnwjYNg-2">
                    <mxGeometry x="60" y="470" width="40" height="20" as="geometry"/>
                </mxCell>
                <mxCell id="1xpMTbBMg0d53cnwjYNg-79" value="件数" style="text;html=1;align=center;verticalAlign=middle;resizable=0;points=[];autosize=1;strokeColor=none;fillColor=none;fontSize=14;" vertex="1" parent="1xpMTbBMg0d53cnwjYNg-2">
                    <mxGeometry x="60" y="230.5" width="40" height="20" as="geometry"/>
                </mxCell>
                <mxCell id="1xpMTbBMg0d53cnwjYNg-80" value="費目名" style="text;html=1;align=center;verticalAlign=middle;resizable=0;points=[];autosize=1;strokeColor=none;fillColor=none;fontSize=14;" vertex="1" parent="1xpMTbBMg0d53cnwjYNg-2">
                    <mxGeometry x="190" y="230.5" width="60" height="20" as="geometry"/>
                </mxCell>
                <mxCell id="1xpMTbBMg0d53cnwjYNg-81" value="税率(%)" style="text;html=1;align=center;verticalAlign=middle;resizable=0;points=[];autosize=1;strokeColor=none;fillColor=none;fontSize=14;" vertex="1" parent="1xpMTbBMg0d53cnwjYNg-2">
                    <mxGeometry x="340" y="230" width="70" height="20" as="geometry"/>
                </mxCell>
                <mxCell id="1xpMTbBMg0d53cnwjYNg-82" value="数量" style="text;html=1;align=center;verticalAlign=middle;resizable=0;points=[];autosize=1;strokeColor=none;fillColor=none;fontSize=14;" vertex="1" parent="1xpMTbBMg0d53cnwjYNg-2">
                    <mxGeometry x="453.5" y="230.5" width="40" height="20" as="geometry"/>
                </mxCell>
                <mxCell id="1xpMTbBMg0d53cnwjYNg-83" value="" style="rounded=0;whiteSpace=wrap;html=1;fontSize=14;align=left;fillColor=#f5f5f5;gradientColor=#b3b3b3;strokeColor=#666666;" vertex="1" parent="1xpMTbBMg0d53cnwjYNg-2">
                    <mxGeometry x="528.5" y="230.5" width="110" height="20" as="geometry"/>
                </mxCell>
                <mxCell id="1xpMTbBMg0d53cnwjYNg-84" value="単価" style="text;html=1;align=center;verticalAlign=middle;resizable=0;points=[];autosize=1;strokeColor=none;fillColor=none;fontSize=14;" vertex="1" parent="1xpMTbBMg0d53cnwjYNg-2">
                    <mxGeometry x="563.5" y="230.5" width="40" height="20" as="geometry"/>
                </mxCell>
                <mxCell id="1xpMTbBMg0d53cnwjYNg-85" value="" style="rounded=0;whiteSpace=wrap;html=1;fontSize=14;align=left;fillColor=#f5f5f5;gradientColor=#b3b3b3;strokeColor=#666666;" vertex="1" parent="1xpMTbBMg0d53cnwjYNg-2">
                    <mxGeometry x="638.5" y="230.5" width="110" height="20" as="geometry"/>
                </mxCell>
                <mxCell id="1xpMTbBMg0d53cnwjYNg-86" value="経費金額" style="text;html=1;align=center;verticalAlign=middle;resizable=0;points=[];autosize=1;strokeColor=none;fillColor=none;fontSize=14;" vertex="1" parent="1xpMTbBMg0d53cnwjYNg-2">
                    <mxGeometry x="658.5" y="230.5" width="70" height="20" as="geometry"/>
                </mxCell>
                <mxCell id="1xpMTbBMg0d53cnwjYNg-87" value="" style="rounded=0;whiteSpace=wrap;html=1;fontSize=14;align=left;fillColor=#f5f5f5;gradientColor=#b3b3b3;strokeColor=#666666;" vertex="1" parent="1xpMTbBMg0d53cnwjYNg-2">
                    <mxGeometry x="748.5" y="230" width="110" height="20" as="geometry"/>
                </mxCell>
                <mxCell id="1xpMTbBMg0d53cnwjYNg-88" value="消費税額" style="text;html=1;align=center;verticalAlign=middle;resizable=0;points=[];autosize=1;strokeColor=none;fillColor=none;fontSize=14;" vertex="1" parent="1xpMTbBMg0d53cnwjYNg-2">
                    <mxGeometry x="768.5" y="230" width="70" height="20" as="geometry"/>
                </mxCell>
                <mxCell id="1xpMTbBMg0d53cnwjYNg-89" value="" style="rounded=0;whiteSpace=wrap;html=1;fontSize=14;align=left;fillColor=#f5f5f5;gradientColor=#b3b3b3;strokeColor=#666666;" vertex="1" parent="1xpMTbBMg0d53cnwjYNg-2">
                    <mxGeometry x="858.5" y="230" width="180" height="20" as="geometry"/>
                </mxCell>
                <mxCell id="1xpMTbBMg0d53cnwjYNg-90" value="備考" style="text;html=1;align=center;verticalAlign=middle;resizable=0;points=[];autosize=1;strokeColor=none;fillColor=none;fontSize=14;" vertex="1" parent="1xpMTbBMg0d53cnwjYNg-2">
                    <mxGeometry x="928.5" y="230" width="40" height="20" as="geometry"/>
                </mxCell>
                <mxCell id="1xpMTbBMg0d53cnwjYNg-91" value="" style="rounded=0;whiteSpace=wrap;html=1;fontSize=14;align=left;" vertex="1" parent="1xpMTbBMg0d53cnwjYNg-2">
                    <mxGeometry x="858.5" y="250.5" width="90" height="20" as="geometry"/>
                </mxCell>
                <mxCell id="1xpMTbBMg0d53cnwjYNg-92" value="" style="rounded=0;whiteSpace=wrap;html=1;fontSize=14;align=left;" vertex="1" parent="1xpMTbBMg0d53cnwjYNg-2">
                    <mxGeometry x="948.5" y="250.5" width="90" height="20" as="geometry"/>
                </mxCell>
                <mxCell id="1xpMTbBMg0d53cnwjYNg-93" value="" style="rounded=0;whiteSpace=wrap;html=1;fontSize=14;align=left;" vertex="1" parent="1xpMTbBMg0d53cnwjYNg-2">
                    <mxGeometry x="858.5" y="270.5" width="90" height="20" as="geometry"/>
                </mxCell>
                <mxCell id="1xpMTbBMg0d53cnwjYNg-94" value="" style="rounded=0;whiteSpace=wrap;html=1;fontSize=14;align=left;" vertex="1" parent="1xpMTbBMg0d53cnwjYNg-2">
                    <mxGeometry x="948.5" y="270.5" width="90" height="20" as="geometry"/>
                </mxCell>
                <mxCell id="1xpMTbBMg0d53cnwjYNg-95" value="" style="rounded=0;whiteSpace=wrap;html=1;fontSize=14;align=left;" vertex="1" parent="1xpMTbBMg0d53cnwjYNg-2">
                    <mxGeometry x="858.5" y="290.5" width="90" height="20" as="geometry"/>
                </mxCell>
                <mxCell id="1xpMTbBMg0d53cnwjYNg-96" value="" style="rounded=0;whiteSpace=wrap;html=1;fontSize=14;align=left;" vertex="1" parent="1xpMTbBMg0d53cnwjYNg-2">
                    <mxGeometry x="948.5" y="290.5" width="90" height="20" as="geometry"/>
                </mxCell>
                <mxCell id="1xpMTbBMg0d53cnwjYNg-97" value="" style="rounded=0;whiteSpace=wrap;html=1;fontSize=14;align=left;" vertex="1" parent="1xpMTbBMg0d53cnwjYNg-2">
                    <mxGeometry x="858.5" y="310.5" width="90" height="20" as="geometry"/>
                </mxCell>
                <mxCell id="1xpMTbBMg0d53cnwjYNg-98" value="" style="rounded=0;whiteSpace=wrap;html=1;fontSize=14;align=left;" vertex="1" parent="1xpMTbBMg0d53cnwjYNg-2">
                    <mxGeometry x="948.5" y="310.5" width="90" height="20" as="geometry"/>
                </mxCell>
                <mxCell id="1xpMTbBMg0d53cnwjYNg-99" value="" style="rounded=0;whiteSpace=wrap;html=1;fontSize=14;align=left;" vertex="1" parent="1xpMTbBMg0d53cnwjYNg-2">
                    <mxGeometry x="858.5" y="330.5" width="90" height="20" as="geometry"/>
                </mxCell>
                <mxCell id="1xpMTbBMg0d53cnwjYNg-100" value="" style="rounded=0;whiteSpace=wrap;html=1;fontSize=14;align=left;" vertex="1" parent="1xpMTbBMg0d53cnwjYNg-2">
                    <mxGeometry x="948.5" y="330.5" width="90" height="20" as="geometry"/>
                </mxCell>
                <mxCell id="1xpMTbBMg0d53cnwjYNg-101" value="" style="rounded=0;whiteSpace=wrap;html=1;fontSize=14;align=left;" vertex="1" parent="1xpMTbBMg0d53cnwjYNg-2">
                    <mxGeometry x="858.5" y="350.5" width="90" height="20" as="geometry"/>
                </mxCell>
                <mxCell id="1xpMTbBMg0d53cnwjYNg-102" value="" style="rounded=0;whiteSpace=wrap;html=1;fontSize=14;align=left;" vertex="1" parent="1xpMTbBMg0d53cnwjYNg-2">
                    <mxGeometry x="948.5" y="350.5" width="90" height="20" as="geometry"/>
                </mxCell>
                <mxCell id="1xpMTbBMg0d53cnwjYNg-103" value="" style="rounded=0;whiteSpace=wrap;html=1;fontSize=14;align=left;" vertex="1" parent="1xpMTbBMg0d53cnwjYNg-2">
                    <mxGeometry x="858.5" y="370.5" width="90" height="20" as="geometry"/>
                </mxCell>
                <mxCell id="1xpMTbBMg0d53cnwjYNg-104" value="" style="rounded=0;whiteSpace=wrap;html=1;fontSize=14;align=left;" vertex="1" parent="1xpMTbBMg0d53cnwjYNg-2">
                    <mxGeometry x="948.5" y="370.5" width="90" height="20" as="geometry"/>
                </mxCell>
                <mxCell id="1xpMTbBMg0d53cnwjYNg-105" value="" style="rounded=0;whiteSpace=wrap;html=1;fontSize=14;align=left;" vertex="1" parent="1xpMTbBMg0d53cnwjYNg-2">
                    <mxGeometry x="858.5" y="390.5" width="90" height="20" as="geometry"/>
                </mxCell>
                <mxCell id="1xpMTbBMg0d53cnwjYNg-106" value="" style="rounded=0;whiteSpace=wrap;html=1;fontSize=14;align=left;" vertex="1" parent="1xpMTbBMg0d53cnwjYNg-2">
                    <mxGeometry x="948.5" y="390.5" width="90" height="20" as="geometry"/>
                </mxCell>
                <mxCell id="1xpMTbBMg0d53cnwjYNg-107" value="" style="rounded=0;whiteSpace=wrap;html=1;fontSize=14;align=left;" vertex="1" parent="1xpMTbBMg0d53cnwjYNg-2">
                    <mxGeometry x="858.5" y="410.5" width="90" height="20" as="geometry"/>
                </mxCell>
                <mxCell id="1xpMTbBMg0d53cnwjYNg-108" value="" style="rounded=0;whiteSpace=wrap;html=1;fontSize=14;align=left;" vertex="1" parent="1xpMTbBMg0d53cnwjYNg-2">
                    <mxGeometry x="948.5" y="410.5" width="90" height="20" as="geometry"/>
                </mxCell>
                <mxCell id="1xpMTbBMg0d53cnwjYNg-109" value="" style="rounded=0;whiteSpace=wrap;html=1;fontSize=14;align=left;" vertex="1" parent="1xpMTbBMg0d53cnwjYNg-2">
                    <mxGeometry x="858.5" y="430.5" width="90" height="20" as="geometry"/>
                </mxCell>
                <mxCell id="1xpMTbBMg0d53cnwjYNg-110" value="" style="rounded=0;whiteSpace=wrap;html=1;fontSize=14;align=left;" vertex="1" parent="1xpMTbBMg0d53cnwjYNg-2">
                    <mxGeometry x="948.5" y="430.5" width="90" height="20" as="geometry"/>
                </mxCell>
                <mxCell id="1xpMTbBMg0d53cnwjYNg-111" value="" style="rounded=0;whiteSpace=wrap;html=1;fontSize=14;align=left;" vertex="1" parent="1xpMTbBMg0d53cnwjYNg-2">
                    <mxGeometry x="858.5" y="450.5" width="90" height="20" as="geometry"/>
                </mxCell>
                <mxCell id="1xpMTbBMg0d53cnwjYNg-112" value="" style="rounded=0;whiteSpace=wrap;html=1;fontSize=14;align=left;" vertex="1" parent="1xpMTbBMg0d53cnwjYNg-2">
                    <mxGeometry x="948.5" y="450.5" width="90" height="20" as="geometry"/>
                </mxCell>
                <mxCell id="1xpMTbBMg0d53cnwjYNg-113" value="" style="rounded=0;whiteSpace=wrap;html=1;fontSize=14;align=left;" vertex="1" parent="1xpMTbBMg0d53cnwjYNg-2">
                    <mxGeometry x="858.5" y="470.5" width="90" height="20" as="geometry"/>
                </mxCell>
                <mxCell id="1xpMTbBMg0d53cnwjYNg-114" value="" style="rounded=0;whiteSpace=wrap;html=1;fontSize=14;align=left;" vertex="1" parent="1xpMTbBMg0d53cnwjYNg-2">
                    <mxGeometry x="948.5" y="470.5" width="90" height="20" as="geometry"/>
                </mxCell>
                <mxCell id="1xpMTbBMg0d53cnwjYNg-115" value="" style="rounded=0;whiteSpace=wrap;html=1;fontSize=14;align=left;" vertex="1" parent="1xpMTbBMg0d53cnwjYNg-2">
                    <mxGeometry x="330" y="250.5" width="90" height="20" as="geometry"/>
                </mxCell>
                <mxCell id="1xpMTbBMg0d53cnwjYNg-116" value="" style="rounded=0;whiteSpace=wrap;html=1;fontSize=14;align=left;" vertex="1" parent="1xpMTbBMg0d53cnwjYNg-2">
                    <mxGeometry x="418.5" y="250.5" width="110" height="20" as="geometry"/>
                </mxCell>
                <mxCell id="1xpMTbBMg0d53cnwjYNg-117" value="" style="rounded=0;whiteSpace=wrap;html=1;fontSize=14;align=left;" vertex="1" parent="1xpMTbBMg0d53cnwjYNg-2">
                    <mxGeometry x="528.5" y="250.5" width="110" height="20" as="geometry"/>
                </mxCell>
                <mxCell id="1xpMTbBMg0d53cnwjYNg-118" value="" style="rounded=0;whiteSpace=wrap;html=1;fontSize=14;align=left;" vertex="1" parent="1xpMTbBMg0d53cnwjYNg-2">
                    <mxGeometry x="638.5" y="250.5" width="110" height="20" as="geometry"/>
                </mxCell>
                <mxCell id="1xpMTbBMg0d53cnwjYNg-119" value="" style="rounded=0;whiteSpace=wrap;html=1;fontSize=14;align=left;" vertex="1" parent="1xpMTbBMg0d53cnwjYNg-2">
                    <mxGeometry x="748.5" y="250" width="110" height="20" as="geometry"/>
                </mxCell>
                <mxCell id="1xpMTbBMg0d53cnwjYNg-120" value="" style="rounded=0;whiteSpace=wrap;html=1;fontSize=14;align=left;" vertex="1" parent="1xpMTbBMg0d53cnwjYNg-2">
                    <mxGeometry x="330" y="270.75" width="90" height="20" as="geometry"/>
                </mxCell>
                <mxCell id="1xpMTbBMg0d53cnwjYNg-121" value="" style="rounded=0;whiteSpace=wrap;html=1;fontSize=14;align=left;" vertex="1" parent="1xpMTbBMg0d53cnwjYNg-2">
                    <mxGeometry x="418.5" y="270.75" width="110" height="20" as="geometry"/>
                </mxCell>
                <mxCell id="1xpMTbBMg0d53cnwjYNg-122" value="" style="rounded=0;whiteSpace=wrap;html=1;fontSize=14;align=left;" vertex="1" parent="1xpMTbBMg0d53cnwjYNg-2">
                    <mxGeometry x="528.5" y="270.75" width="110" height="20" as="geometry"/>
                </mxCell>
                <mxCell id="1xpMTbBMg0d53cnwjYNg-123" value="" style="rounded=0;whiteSpace=wrap;html=1;fontSize=14;align=left;" vertex="1" parent="1xpMTbBMg0d53cnwjYNg-2">
                    <mxGeometry x="638.5" y="270.75" width="110" height="20" as="geometry"/>
                </mxCell>
                <mxCell id="1xpMTbBMg0d53cnwjYNg-124" value="" style="rounded=0;whiteSpace=wrap;html=1;fontSize=14;align=left;" vertex="1" parent="1xpMTbBMg0d53cnwjYNg-2">
                    <mxGeometry x="748.5" y="270.25" width="110" height="20" as="geometry"/>
                </mxCell>
                <mxCell id="1xpMTbBMg0d53cnwjYNg-125" value="" style="rounded=0;whiteSpace=wrap;html=1;fontSize=14;align=left;" vertex="1" parent="1xpMTbBMg0d53cnwjYNg-2">
                    <mxGeometry x="330" y="290.25" width="90" height="20" as="geometry"/>
                </mxCell>
                <mxCell id="1xpMTbBMg0d53cnwjYNg-126" value="" style="rounded=0;whiteSpace=wrap;html=1;fontSize=14;align=left;" vertex="1" parent="1xpMTbBMg0d53cnwjYNg-2">
                    <mxGeometry x="418.5" y="290.25" width="110" height="20" as="geometry"/>
                </mxCell>
                <mxCell id="1xpMTbBMg0d53cnwjYNg-127" value="" style="rounded=0;whiteSpace=wrap;html=1;fontSize=14;align=left;" vertex="1" parent="1xpMTbBMg0d53cnwjYNg-2">
                    <mxGeometry x="528.5" y="290.25" width="110" height="20" as="geometry"/>
                </mxCell>
                <mxCell id="1xpMTbBMg0d53cnwjYNg-128" value="" style="rounded=0;whiteSpace=wrap;html=1;fontSize=14;align=left;" vertex="1" parent="1xpMTbBMg0d53cnwjYNg-2">
                    <mxGeometry x="638.5" y="290.25" width="110" height="20" as="geometry"/>
                </mxCell>
                <mxCell id="1xpMTbBMg0d53cnwjYNg-129" value="" style="rounded=0;whiteSpace=wrap;html=1;fontSize=14;align=left;" vertex="1" parent="1xpMTbBMg0d53cnwjYNg-2">
                    <mxGeometry x="748.5" y="290.25" width="110" height="20" as="geometry"/>
                </mxCell>
                <mxCell id="1xpMTbBMg0d53cnwjYNg-130" value="" style="rounded=0;whiteSpace=wrap;html=1;fontSize=14;align=left;" vertex="1" parent="1xpMTbBMg0d53cnwjYNg-2">
                    <mxGeometry x="330" y="310.75" width="90" height="20" as="geometry"/>
                </mxCell>
                <mxCell id="1xpMTbBMg0d53cnwjYNg-131" value="" style="rounded=0;whiteSpace=wrap;html=1;fontSize=14;align=left;" vertex="1" parent="1xpMTbBMg0d53cnwjYNg-2">
                    <mxGeometry x="418.5" y="310.75" width="110" height="20" as="geometry"/>
                </mxCell>
                <mxCell id="1xpMTbBMg0d53cnwjYNg-132" value="" style="rounded=0;whiteSpace=wrap;html=1;fontSize=14;align=left;" vertex="1" parent="1xpMTbBMg0d53cnwjYNg-2">
                    <mxGeometry x="528.5" y="310.75" width="110" height="20" as="geometry"/>
                </mxCell>
                <mxCell id="1xpMTbBMg0d53cnwjYNg-133" value="" style="rounded=0;whiteSpace=wrap;html=1;fontSize=14;align=left;" vertex="1" parent="1xpMTbBMg0d53cnwjYNg-2">
                    <mxGeometry x="638.5" y="310.75" width="110" height="20" as="geometry"/>
                </mxCell>
                <mxCell id="1xpMTbBMg0d53cnwjYNg-134" value="" style="rounded=0;whiteSpace=wrap;html=1;fontSize=14;align=left;" vertex="1" parent="1xpMTbBMg0d53cnwjYNg-2">
                    <mxGeometry x="748.5" y="310.75" width="110" height="20" as="geometry"/>
                </mxCell>
                <mxCell id="1xpMTbBMg0d53cnwjYNg-135" value="" style="rounded=0;whiteSpace=wrap;html=1;fontSize=14;align=left;" vertex="1" parent="1xpMTbBMg0d53cnwjYNg-2">
                    <mxGeometry x="330" y="330.75" width="90" height="20" as="geometry"/>
                </mxCell>
                <mxCell id="1xpMTbBMg0d53cnwjYNg-136" value="" style="rounded=0;whiteSpace=wrap;html=1;fontSize=14;align=left;" vertex="1" parent="1xpMTbBMg0d53cnwjYNg-2">
                    <mxGeometry x="418.5" y="330.75" width="110" height="20" as="geometry"/>
                </mxCell>
                <mxCell id="1xpMTbBMg0d53cnwjYNg-137" value="" style="rounded=0;whiteSpace=wrap;html=1;fontSize=14;align=left;" vertex="1" parent="1xpMTbBMg0d53cnwjYNg-2">
                    <mxGeometry x="528.5" y="330.75" width="110" height="20" as="geometry"/>
                </mxCell>
                <mxCell id="1xpMTbBMg0d53cnwjYNg-138" value="" style="rounded=0;whiteSpace=wrap;html=1;fontSize=14;align=left;" vertex="1" parent="1xpMTbBMg0d53cnwjYNg-2">
                    <mxGeometry x="638.5" y="330.75" width="110" height="20" as="geometry"/>
                </mxCell>
                <mxCell id="1xpMTbBMg0d53cnwjYNg-139" value="" style="rounded=0;whiteSpace=wrap;html=1;fontSize=14;align=left;" vertex="1" parent="1xpMTbBMg0d53cnwjYNg-2">
                    <mxGeometry x="748.5" y="330.75" width="110" height="20" as="geometry"/>
                </mxCell>
                <mxCell id="1xpMTbBMg0d53cnwjYNg-140" value="" style="rounded=0;whiteSpace=wrap;html=1;fontSize=14;align=left;" vertex="1" parent="1xpMTbBMg0d53cnwjYNg-2">
                    <mxGeometry x="330" y="351.25" width="90" height="20" as="geometry"/>
                </mxCell>
                <mxCell id="1xpMTbBMg0d53cnwjYNg-141" value="" style="rounded=0;whiteSpace=wrap;html=1;fontSize=14;align=left;" vertex="1" parent="1xpMTbBMg0d53cnwjYNg-2">
                    <mxGeometry x="418.5" y="351.25" width="110" height="20" as="geometry"/>
                </mxCell>
                <mxCell id="1xpMTbBMg0d53cnwjYNg-142" value="" style="rounded=0;whiteSpace=wrap;html=1;fontSize=14;align=left;" vertex="1" parent="1xpMTbBMg0d53cnwjYNg-2">
                    <mxGeometry x="528.5" y="351.25" width="110" height="20" as="geometry"/>
                </mxCell>
                <mxCell id="1xpMTbBMg0d53cnwjYNg-143" value="" style="rounded=0;whiteSpace=wrap;html=1;fontSize=14;align=left;" vertex="1" parent="1xpMTbBMg0d53cnwjYNg-2">
                    <mxGeometry x="638.5" y="351.25" width="110" height="20" as="geometry"/>
                </mxCell>
                <mxCell id="1xpMTbBMg0d53cnwjYNg-144" value="" style="rounded=0;whiteSpace=wrap;html=1;fontSize=14;align=left;" vertex="1" parent="1xpMTbBMg0d53cnwjYNg-2">
                    <mxGeometry x="748.5" y="351.25" width="110" height="20" as="geometry"/>
                </mxCell>
                <mxCell id="1xpMTbBMg0d53cnwjYNg-145" value="" style="rounded=0;whiteSpace=wrap;html=1;fontSize=14;align=left;" vertex="1" parent="1xpMTbBMg0d53cnwjYNg-2">
                    <mxGeometry x="330" y="371.25" width="90" height="20" as="geometry"/>
                </mxCell>
                <mxCell id="1xpMTbBMg0d53cnwjYNg-146" value="" style="rounded=0;whiteSpace=wrap;html=1;fontSize=14;align=left;" vertex="1" parent="1xpMTbBMg0d53cnwjYNg-2">
                    <mxGeometry x="418.5" y="371.25" width="110" height="20" as="geometry"/>
                </mxCell>
                <mxCell id="1xpMTbBMg0d53cnwjYNg-147" value="" style="rounded=0;whiteSpace=wrap;html=1;fontSize=14;align=left;" vertex="1" parent="1xpMTbBMg0d53cnwjYNg-2">
                    <mxGeometry x="528.5" y="371.25" width="110" height="20" as="geometry"/>
                </mxCell>
                <mxCell id="1xpMTbBMg0d53cnwjYNg-148" value="" style="rounded=0;whiteSpace=wrap;html=1;fontSize=14;align=left;" vertex="1" parent="1xpMTbBMg0d53cnwjYNg-2">
                    <mxGeometry x="638.5" y="371.25" width="110" height="20" as="geometry"/>
                </mxCell>
                <mxCell id="1xpMTbBMg0d53cnwjYNg-149" value="" style="rounded=0;whiteSpace=wrap;html=1;fontSize=14;align=left;" vertex="1" parent="1xpMTbBMg0d53cnwjYNg-2">
                    <mxGeometry x="748.5" y="371.25" width="110" height="20" as="geometry"/>
                </mxCell>
                <mxCell id="1xpMTbBMg0d53cnwjYNg-150" value="" style="rounded=0;whiteSpace=wrap;html=1;fontSize=14;align=left;" vertex="1" parent="1xpMTbBMg0d53cnwjYNg-2">
                    <mxGeometry x="330" y="391.75" width="90" height="20" as="geometry"/>
                </mxCell>
                <mxCell id="1xpMTbBMg0d53cnwjYNg-151" value="" style="rounded=0;whiteSpace=wrap;html=1;fontSize=14;align=left;" vertex="1" parent="1xpMTbBMg0d53cnwjYNg-2">
                    <mxGeometry x="418.5" y="391.75" width="110" height="20" as="geometry"/>
                </mxCell>
                <mxCell id="1xpMTbBMg0d53cnwjYNg-152" value="" style="rounded=0;whiteSpace=wrap;html=1;fontSize=14;align=left;" vertex="1" parent="1xpMTbBMg0d53cnwjYNg-2">
                    <mxGeometry x="528.5" y="391.75" width="110" height="20" as="geometry"/>
                </mxCell>
                <mxCell id="1xpMTbBMg0d53cnwjYNg-153" value="" style="rounded=0;whiteSpace=wrap;html=1;fontSize=14;align=left;" vertex="1" parent="1xpMTbBMg0d53cnwjYNg-2">
                    <mxGeometry x="638.5" y="391.75" width="110" height="20" as="geometry"/>
                </mxCell>
                <mxCell id="1xpMTbBMg0d53cnwjYNg-154" value="" style="rounded=0;whiteSpace=wrap;html=1;fontSize=14;align=left;" vertex="1" parent="1xpMTbBMg0d53cnwjYNg-2">
                    <mxGeometry x="748.5" y="391.75" width="110" height="20" as="geometry"/>
                </mxCell>
                <mxCell id="1xpMTbBMg0d53cnwjYNg-155" value="" style="rounded=0;whiteSpace=wrap;html=1;fontSize=14;align=left;" vertex="1" parent="1xpMTbBMg0d53cnwjYNg-2">
                    <mxGeometry x="330" y="411.75" width="90" height="20" as="geometry"/>
                </mxCell>
                <mxCell id="1xpMTbBMg0d53cnwjYNg-156" value="" style="rounded=0;whiteSpace=wrap;html=1;fontSize=14;align=left;" vertex="1" parent="1xpMTbBMg0d53cnwjYNg-2">
                    <mxGeometry x="418.5" y="411.75" width="110" height="20" as="geometry"/>
                </mxCell>
                <mxCell id="1xpMTbBMg0d53cnwjYNg-157" value="" style="rounded=0;whiteSpace=wrap;html=1;fontSize=14;align=left;" vertex="1" parent="1xpMTbBMg0d53cnwjYNg-2">
                    <mxGeometry x="528.5" y="411.75" width="110" height="20" as="geometry"/>
                </mxCell>
                <mxCell id="1xpMTbBMg0d53cnwjYNg-158" value="" style="rounded=0;whiteSpace=wrap;html=1;fontSize=14;align=left;" vertex="1" parent="1xpMTbBMg0d53cnwjYNg-2">
                    <mxGeometry x="638.5" y="411.75" width="110" height="20" as="geometry"/>
                </mxCell>
                <mxCell id="1xpMTbBMg0d53cnwjYNg-159" value="" style="rounded=0;whiteSpace=wrap;html=1;fontSize=14;align=left;" vertex="1" parent="1xpMTbBMg0d53cnwjYNg-2">
                    <mxGeometry x="748.5" y="411.75" width="110" height="20" as="geometry"/>
                </mxCell>
                <mxCell id="1xpMTbBMg0d53cnwjYNg-160" value="" style="rounded=0;whiteSpace=wrap;html=1;fontSize=14;align=left;" vertex="1" parent="1xpMTbBMg0d53cnwjYNg-2">
                    <mxGeometry x="330" y="432.25" width="90" height="20" as="geometry"/>
                </mxCell>
                <mxCell id="1xpMTbBMg0d53cnwjYNg-161" value="" style="rounded=0;whiteSpace=wrap;html=1;fontSize=14;align=left;" vertex="1" parent="1xpMTbBMg0d53cnwjYNg-2">
                    <mxGeometry x="418.5" y="432.25" width="110" height="20" as="geometry"/>
                </mxCell>
                <mxCell id="1xpMTbBMg0d53cnwjYNg-162" value="" style="rounded=0;whiteSpace=wrap;html=1;fontSize=14;align=left;" vertex="1" parent="1xpMTbBMg0d53cnwjYNg-2">
                    <mxGeometry x="528.5" y="432.25" width="110" height="20" as="geometry"/>
                </mxCell>
                <mxCell id="1xpMTbBMg0d53cnwjYNg-163" value="" style="rounded=0;whiteSpace=wrap;html=1;fontSize=14;align=left;" vertex="1" parent="1xpMTbBMg0d53cnwjYNg-2">
                    <mxGeometry x="638.5" y="432.25" width="110" height="20" as="geometry"/>
                </mxCell>
                <mxCell id="1xpMTbBMg0d53cnwjYNg-164" value="" style="rounded=0;whiteSpace=wrap;html=1;fontSize=14;align=left;" vertex="1" parent="1xpMTbBMg0d53cnwjYNg-2">
                    <mxGeometry x="748.5" y="432.25" width="110" height="20" as="geometry"/>
                </mxCell>
                <mxCell id="1xpMTbBMg0d53cnwjYNg-165" value="" style="rounded=0;whiteSpace=wrap;html=1;fontSize=14;align=left;" vertex="1" parent="1xpMTbBMg0d53cnwjYNg-2">
                    <mxGeometry x="330" y="450.5" width="90" height="20" as="geometry"/>
                </mxCell>
                <mxCell id="1xpMTbBMg0d53cnwjYNg-166" value="" style="rounded=0;whiteSpace=wrap;html=1;fontSize=14;align=left;" vertex="1" parent="1xpMTbBMg0d53cnwjYNg-2">
                    <mxGeometry x="418.5" y="450.5" width="110" height="20" as="geometry"/>
                </mxCell>
                <mxCell id="1xpMTbBMg0d53cnwjYNg-167" value="" style="rounded=0;whiteSpace=wrap;html=1;fontSize=14;align=left;" vertex="1" parent="1xpMTbBMg0d53cnwjYNg-2">
                    <mxGeometry x="528.5" y="450.5" width="110" height="20" as="geometry"/>
                </mxCell>
                <mxCell id="1xpMTbBMg0d53cnwjYNg-168" value="" style="rounded=0;whiteSpace=wrap;html=1;fontSize=14;align=left;" vertex="1" parent="1xpMTbBMg0d53cnwjYNg-2">
                    <mxGeometry x="638.5" y="450.5" width="110" height="20" as="geometry"/>
                </mxCell>
                <mxCell id="1xpMTbBMg0d53cnwjYNg-169" value="" style="rounded=0;whiteSpace=wrap;html=1;fontSize=14;align=left;" vertex="1" parent="1xpMTbBMg0d53cnwjYNg-2">
                    <mxGeometry x="748.5" y="450.5" width="110" height="20" as="geometry"/>
                </mxCell>
                <mxCell id="1xpMTbBMg0d53cnwjYNg-170" value="" style="rounded=0;whiteSpace=wrap;html=1;fontSize=14;align=left;" vertex="1" parent="1xpMTbBMg0d53cnwjYNg-2">
                    <mxGeometry x="330" y="471" width="90" height="20" as="geometry"/>
                </mxCell>
                <mxCell id="1xpMTbBMg0d53cnwjYNg-171" value="" style="rounded=0;whiteSpace=wrap;html=1;fontSize=14;align=left;" vertex="1" parent="1xpMTbBMg0d53cnwjYNg-2">
                    <mxGeometry x="418.5" y="471" width="110" height="20" as="geometry"/>
                </mxCell>
                <mxCell id="1xpMTbBMg0d53cnwjYNg-172" value="" style="rounded=0;whiteSpace=wrap;html=1;fontSize=14;align=left;" vertex="1" parent="1xpMTbBMg0d53cnwjYNg-2">
                    <mxGeometry x="528.5" y="471" width="110" height="20" as="geometry"/>
                </mxCell>
                <mxCell id="1xpMTbBMg0d53cnwjYNg-173" value="" style="rounded=0;whiteSpace=wrap;html=1;fontSize=14;align=left;" vertex="1" parent="1xpMTbBMg0d53cnwjYNg-2">
                    <mxGeometry x="638.5" y="471" width="110" height="20" as="geometry"/>
                </mxCell>
                <mxCell id="1xpMTbBMg0d53cnwjYNg-174" value="" style="rounded=0;whiteSpace=wrap;html=1;fontSize=14;align=left;" vertex="1" parent="1xpMTbBMg0d53cnwjYNg-2">
                    <mxGeometry x="748.5" y="471" width="110" height="20" as="geometry"/>
                </mxCell>
                <mxCell id="1xpMTbBMg0d53cnwjYNg-175" value="" style="rounded=0;whiteSpace=wrap;html=1;fontSize=14;align=left;fillColor=#f5f5f5;gradientColor=#b3b3b3;strokeColor=#666666;" vertex="1" parent="1xpMTbBMg0d53cnwjYNg-2">
                    <mxGeometry x="50" y="585" width="180" height="20" as="geometry"/>
                </mxCell>
                <mxCell id="1xpMTbBMg0d53cnwjYNg-176" value="" style="rounded=0;whiteSpace=wrap;html=1;fontSize=14;align=left;fillColor=#f5f5f5;gradientColor=#b3b3b3;strokeColor=#666666;" vertex="1" parent="1xpMTbBMg0d53cnwjYNg-2">
                    <mxGeometry x="50" y="620" width="150" height="20" as="geometry"/>
                </mxCell>
                <mxCell id="1xpMTbBMg0d53cnwjYNg-177" value="" style="rounded=0;whiteSpace=wrap;html=1;fontSize=14;align=left;" vertex="1" parent="1xpMTbBMg0d53cnwjYNg-2">
                    <mxGeometry x="240" y="585" width="150" height="20" as="geometry"/>
                </mxCell>
                <mxCell id="1xpMTbBMg0d53cnwjYNg-178" value="" style="rounded=0;whiteSpace=wrap;html=1;fontSize=14;align=left;" vertex="1" parent="1xpMTbBMg0d53cnwjYNg-2">
                    <mxGeometry x="390" y="585" width="150" height="20" as="geometry"/>
                </mxCell>
                <mxCell id="1xpMTbBMg0d53cnwjYNg-179" value="" style="rounded=0;whiteSpace=wrap;html=1;fontSize=14;align=left;" vertex="1" parent="1xpMTbBMg0d53cnwjYNg-2">
                    <mxGeometry x="540" y="585" width="150" height="20" as="geometry"/>
                </mxCell>
                <mxCell id="1xpMTbBMg0d53cnwjYNg-180" value="" style="rounded=0;whiteSpace=wrap;html=1;fontSize=14;align=left;fillColor=#f5f5f5;gradientColor=#b3b3b3;strokeColor=#666666;" vertex="1" parent="1xpMTbBMg0d53cnwjYNg-2">
                    <mxGeometry x="534" y="555" width="120" height="20" as="geometry"/>
                </mxCell>
                <mxCell id="1xpMTbBMg0d53cnwjYNg-181" value="" style="rounded=0;whiteSpace=wrap;html=1;fontSize=14;align=left;" vertex="1" parent="1xpMTbBMg0d53cnwjYNg-2">
                    <mxGeometry x="750" y="555" width="120" height="20" as="geometry"/>
                </mxCell>
                <mxCell id="1xpMTbBMg0d53cnwjYNg-182" value="" style="rounded=0;whiteSpace=wrap;html=1;fontSize=14;align=left;" vertex="1" parent="1xpMTbBMg0d53cnwjYNg-2">
                    <mxGeometry x="664" y="555" width="80" height="20" as="geometry"/>
                </mxCell>
                <mxCell id="1xpMTbBMg0d53cnwjYNg-183" value="" style="rounded=0;whiteSpace=wrap;html=1;fontSize=14;align=left;" vertex="1" parent="1xpMTbBMg0d53cnwjYNg-2">
                    <mxGeometry x="210" y="620" width="300" height="20" as="geometry"/>
                </mxCell>
                <mxCell id="1xpMTbBMg0d53cnwjYNg-184" value="金額／消費税／総合計" style="text;html=1;align=center;verticalAlign=middle;resizable=0;points=[];autosize=1;strokeColor=none;fillColor=none;fontSize=14;" vertex="1" parent="1xpMTbBMg0d53cnwjYNg-2">
                    <mxGeometry x="60" y="585" width="160" height="20" as="geometry"/>
                </mxCell>
                <mxCell id="1xpMTbBMg0d53cnwjYNg-185" value="入力担当者" style="text;html=1;align=center;verticalAlign=middle;resizable=0;points=[];autosize=1;strokeColor=none;fillColor=none;fontSize=14;" vertex="1" parent="1xpMTbBMg0d53cnwjYNg-2">
                    <mxGeometry x="549" y="555" width="90" height="20" as="geometry"/>
                </mxCell>
                <mxCell id="1xpMTbBMg0d53cnwjYNg-186" value="経費NO" style="text;html=1;align=center;verticalAlign=middle;resizable=0;points=[];autosize=1;strokeColor=none;fillColor=none;fontSize=14;" vertex="1" parent="1xpMTbBMg0d53cnwjYNg-2">
                    <mxGeometry x="80" y="170" width="60" height="20" as="geometry"/>
                </mxCell>
                <mxCell id="1xpMTbBMg0d53cnwjYNg-187" value="計上日" style="text;html=1;align=center;verticalAlign=middle;resizable=0;points=[];autosize=1;strokeColor=none;fillColor=none;fontSize=14;" vertex="1" parent="1xpMTbBMg0d53cnwjYNg-2">
                    <mxGeometry x="329" y="170" width="60" height="20" as="geometry"/>
                </mxCell>
                <mxCell id="1xpMTbBMg0d53cnwjYNg-188" value="担当者" style="text;html=1;align=center;verticalAlign=middle;resizable=0;points=[];autosize=1;strokeColor=none;fillColor=none;fontSize=14;" vertex="1" parent="1xpMTbBMg0d53cnwjYNg-2">
                    <mxGeometry x="635" y="170" width="60" height="20" as="geometry"/>
                </mxCell>
                <mxCell id="1xpMTbBMg0d53cnwjYNg-189" value="備考" style="text;html=1;align=center;verticalAlign=middle;resizable=0;points=[];autosize=1;strokeColor=none;fillColor=none;fontSize=14;" vertex="1" parent="1xpMTbBMg0d53cnwjYNg-2">
                    <mxGeometry x="105" y="620" width="40" height="20" as="geometry"/>
                </mxCell>
                <mxCell id="1xpMTbBMg0d53cnwjYNg-190" value="" style="rounded=0;whiteSpace=wrap;html=1;fontSize=14;align=left;fillColor=#000000;gradientColor=#000000;" vertex="1" parent="1xpMTbBMg0d53cnwjYNg-2">
                    <mxGeometry x="1010" y="18" width="20" height="5" as="geometry"/>
                </mxCell>
                <mxCell id="1xpMTbBMg0d53cnwjYNg-191" value="" style="verticalLabelPosition=bottom;verticalAlign=top;html=1;shape=mxgraph.basic.frame;dx=2.52;fontSize=14;fillColor=#f5f5f5;gradientColor=#b3b3b3;strokeColor=#666666;" vertex="1" parent="1xpMTbBMg0d53cnwjYNg-2">
                    <mxGeometry x="1072.5" y="11" width="20" height="20" as="geometry"/>
                </mxCell>
                <mxCell id="1xpMTbBMg0d53cnwjYNg-192" value="" style="verticalLabelPosition=bottom;verticalAlign=top;html=1;shape=mxgraph.basic.x;fontSize=14;fillColor=#000000;gradientColor=#000000;" vertex="1" parent="1xpMTbBMg0d53cnwjYNg-2">
                    <mxGeometry x="1133" y="11" width="20" height="20" as="geometry"/>
                </mxCell>
                <mxCell id="1xpMTbBMg0d53cnwjYNg-193" value="10,000" style="text;html=1;align=center;verticalAlign=middle;resizable=0;points=[];autosize=1;strokeColor=none;fillColor=none;fontSize=14;fontColor=#66B2FF;" vertex="1" parent="1xpMTbBMg0d53cnwjYNg-2">
                    <mxGeometry x="329" y="585" width="60" height="20" as="geometry"/>
                </mxCell>
                <mxCell id="1xpMTbBMg0d53cnwjYNg-194" value="800" style="text;html=1;align=center;verticalAlign=middle;resizable=0;points=[];autosize=1;strokeColor=none;fillColor=none;fontSize=14;fontColor=#66B2FF;" vertex="1" parent="1xpMTbBMg0d53cnwjYNg-2">
                    <mxGeometry x="500" y="585" width="40" height="20" as="geometry"/>
                </mxCell>
                <mxCell id="1xpMTbBMg0d53cnwjYNg-195" value="10,800" style="text;html=1;align=center;verticalAlign=middle;resizable=0;points=[];autosize=1;strokeColor=none;fillColor=none;fontSize=14;fontColor=#66B2FF;" vertex="1" parent="1xpMTbBMg0d53cnwjYNg-2">
                    <mxGeometry x="630" y="585" width="60" height="20" as="geometry"/>
                </mxCell>
                <mxCell id="1xpMTbBMg0d53cnwjYNg-196" value="999999" style="text;html=1;align=center;verticalAlign=middle;resizable=0;points=[];autosize=1;strokeColor=none;fillColor=none;fontSize=14;fontColor=#3399FF;" vertex="1" parent="1xpMTbBMg0d53cnwjYNg-2">
                    <mxGeometry x="674" y="555" width="60" height="20" as="geometry"/>
                </mxCell>
                <mxCell id="1xpMTbBMg0d53cnwjYNg-197" value="管理者" style="text;html=1;align=center;verticalAlign=middle;resizable=0;points=[];autosize=1;strokeColor=none;fillColor=none;fontSize=14;fontColor=#3399FF;" vertex="1" parent="1xpMTbBMg0d53cnwjYNg-2">
                    <mxGeometry x="754" y="555" width="60" height="20" as="geometry"/>
                </mxCell>
                <mxCell id="1xpMTbBMg0d53cnwjYNg-198" value="" style="rounded=1;whiteSpace=wrap;html=1;fontSize=14;fillColor=#f5f5f5;gradientColor=#b3b3b3;align=left;strokeColor=#666666;" vertex="1" parent="1xpMTbBMg0d53cnwjYNg-2">
                    <mxGeometry x="1000" y="620" width="104" height="40" as="geometry"/>
                </mxCell>
                <mxCell id="1xpMTbBMg0d53cnwjYNg-199" value="&lt;span style=&quot;font-size: 24px&quot;&gt;登録&lt;/span&gt;" style="text;html=1;align=center;verticalAlign=middle;resizable=0;points=[];autosize=1;strokeColor=none;fillColor=none;fontSize=14;" vertex="1" parent="1xpMTbBMg0d53cnwjYNg-2">
                    <mxGeometry x="1022" y="625" width="60" height="30" as="geometry"/>
                </mxCell>
                <mxCell id="1xpMTbBMg0d53cnwjYNg-200" value="&lt;span style=&quot;font-size: 14px&quot;&gt;消耗品費(プリントタナー)&lt;/span&gt;" style="text;html=1;align=center;verticalAlign=middle;resizable=0;points=[];autosize=1;strokeColor=none;fillColor=none;fontSize=24;" vertex="1" parent="1xpMTbBMg0d53cnwjYNg-2">
                    <mxGeometry x="106.5" y="235.5" width="180" height="40" as="geometry"/>
                </mxCell>
                <mxCell id="1xpMTbBMg0d53cnwjYNg-201" value="&lt;font color=&quot;#3399ff&quot;&gt;8.00&lt;/font&gt;" style="text;html=1;align=center;verticalAlign=middle;resizable=0;points=[];autosize=1;strokeColor=none;fillColor=none;fontSize=14;" vertex="1" parent="1xpMTbBMg0d53cnwjYNg-2">
                    <mxGeometry x="377" y="250.75" width="40" height="20" as="geometry"/>
                </mxCell>
                <mxCell id="1xpMTbBMg0d53cnwjYNg-202" value="1" style="text;html=1;align=center;verticalAlign=middle;resizable=0;points=[];autosize=1;strokeColor=none;fillColor=none;fontSize=14;" vertex="1" parent="1xpMTbBMg0d53cnwjYNg-2">
                    <mxGeometry x="508.5" y="250" width="20" height="20" as="geometry"/>
                </mxCell>
                <mxCell id="1xpMTbBMg0d53cnwjYNg-203" value="10,000" style="text;html=1;align=center;verticalAlign=middle;resizable=0;points=[];autosize=1;strokeColor=none;fillColor=none;fontSize=14;" vertex="1" parent="1xpMTbBMg0d53cnwjYNg-2">
                    <mxGeometry x="580" y="250" width="60" height="20" as="geometry"/>
                </mxCell>
                <mxCell id="1xpMTbBMg0d53cnwjYNg-204" value="10,000" style="text;html=1;align=center;verticalAlign=middle;resizable=0;points=[];autosize=1;strokeColor=none;fillColor=none;fontSize=14;fontColor=#3399FF;" vertex="1" parent="1xpMTbBMg0d53cnwjYNg-2">
                    <mxGeometry x="688.5" y="250.75" width="60" height="20" as="geometry"/>
                </mxCell>
                <mxCell id="1xpMTbBMg0d53cnwjYNg-205" value="800" style="text;html=1;align=center;verticalAlign=middle;resizable=0;points=[];autosize=1;strokeColor=none;fillColor=none;fontSize=14;fontColor=#3399FF;" vertex="1" parent="1xpMTbBMg0d53cnwjYNg-2">
                    <mxGeometry x="818.5" y="250" width="40" height="20" as="geometry"/>
                </mxCell>
                <mxCell id="1xpMTbBMg0d53cnwjYNg-206" value="" style="rounded=0;whiteSpace=wrap;html=1;fontSize=14;align=left;fillColor=#f5f5f5;gradientColor=#b3b3b3;strokeColor=#666666;" vertex="1" parent="1xpMTbBMg0d53cnwjYNg-2">
                    <mxGeometry x="50" y="555" width="150" height="20" as="geometry"/>
                </mxCell>
                <mxCell id="1xpMTbBMg0d53cnwjYNg-207" value="" style="rounded=0;whiteSpace=wrap;html=1;fontSize=14;align=left;" vertex="1" parent="1xpMTbBMg0d53cnwjYNg-2">
                    <mxGeometry x="210" y="555" width="300" height="20" as="geometry"/>
                </mxCell>
                <mxCell id="1xpMTbBMg0d53cnwjYNg-208" value="費目名" style="text;html=1;align=center;verticalAlign=middle;resizable=0;points=[];autosize=1;strokeColor=none;fillColor=none;fontSize=14;" vertex="1" parent="1xpMTbBMg0d53cnwjYNg-2">
                    <mxGeometry x="95" y="555" width="60" height="20" as="geometry"/>
                </mxCell>
                <mxCell id="1xpMTbBMg0d53cnwjYNg-209" value="" style="rounded=0;whiteSpace=wrap;html=1;fontSize=14;align=left;" vertex="1" parent="1xpMTbBMg0d53cnwjYNg-2">
                    <mxGeometry x="50" y="511" width="60" height="20" as="geometry"/>
                </mxCell>
                <mxCell id="1xpMTbBMg0d53cnwjYNg-210" value="" style="rounded=0;whiteSpace=wrap;html=1;fontSize=14;align=left;" vertex="1" parent="1xpMTbBMg0d53cnwjYNg-2">
                    <mxGeometry x="50" y="491" width="60" height="20" as="geometry"/>
                </mxCell>
                <mxCell id="1xpMTbBMg0d53cnwjYNg-211" value="" style="rounded=0;whiteSpace=wrap;html=1;fontSize=14;align=left;" vertex="1" parent="1xpMTbBMg0d53cnwjYNg-2">
                    <mxGeometry x="110" y="491.5" width="220" height="20" as="geometry"/>
                </mxCell>
                <mxCell id="1xpMTbBMg0d53cnwjYNg-212" value="" style="rounded=0;whiteSpace=wrap;html=1;fontSize=14;align=left;" vertex="1" parent="1xpMTbBMg0d53cnwjYNg-2">
                    <mxGeometry x="110" y="511.5" width="220" height="20" as="geometry"/>
                </mxCell>
                <mxCell id="1xpMTbBMg0d53cnwjYNg-213" value="" style="rounded=0;whiteSpace=wrap;html=1;fontSize=14;align=left;" vertex="1" parent="1xpMTbBMg0d53cnwjYNg-2">
                    <mxGeometry x="50" y="511" width="60" height="20" as="geometry"/>
                </mxCell>
                <mxCell id="1xpMTbBMg0d53cnwjYNg-214" value="" style="rounded=0;whiteSpace=wrap;html=1;fontSize=14;align=left;" vertex="1" parent="1xpMTbBMg0d53cnwjYNg-2">
                    <mxGeometry x="50" y="491" width="60" height="20" as="geometry"/>
                </mxCell>
                <mxCell id="1xpMTbBMg0d53cnwjYNg-215" value="001" style="text;html=1;align=center;verticalAlign=middle;resizable=0;points=[];autosize=1;strokeColor=none;fillColor=none;fontSize=14;" vertex="1" parent="1xpMTbBMg0d53cnwjYNg-2">
                    <mxGeometry x="60" y="491" width="40" height="20" as="geometry"/>
                </mxCell>
                <mxCell id="1xpMTbBMg0d53cnwjYNg-216" value="001" style="text;html=1;align=center;verticalAlign=middle;resizable=0;points=[];autosize=1;strokeColor=none;fillColor=none;fontSize=14;" vertex="1" parent="1xpMTbBMg0d53cnwjYNg-2">
                    <mxGeometry x="60" y="511" width="40" height="20" as="geometry"/>
                </mxCell>
                <mxCell id="1xpMTbBMg0d53cnwjYNg-217" value="" style="rounded=0;whiteSpace=wrap;html=1;fontSize=14;align=left;" vertex="1" parent="1xpMTbBMg0d53cnwjYNg-2">
                    <mxGeometry x="858.5" y="491.5" width="90" height="20" as="geometry"/>
                </mxCell>
                <mxCell id="1xpMTbBMg0d53cnwjYNg-218" value="" style="rounded=0;whiteSpace=wrap;html=1;fontSize=14;align=left;" vertex="1" parent="1xpMTbBMg0d53cnwjYNg-2">
                    <mxGeometry x="948.5" y="491.5" width="90" height="20" as="geometry"/>
                </mxCell>
                <mxCell id="1xpMTbBMg0d53cnwjYNg-219" value="" style="rounded=0;whiteSpace=wrap;html=1;fontSize=14;align=left;" vertex="1" parent="1xpMTbBMg0d53cnwjYNg-2">
                    <mxGeometry x="858.5" y="511.5" width="90" height="20" as="geometry"/>
                </mxCell>
                <mxCell id="1xpMTbBMg0d53cnwjYNg-220" value="" style="rounded=0;whiteSpace=wrap;html=1;fontSize=14;align=left;" vertex="1" parent="1xpMTbBMg0d53cnwjYNg-2">
                    <mxGeometry x="948.5" y="511.5" width="90" height="20" as="geometry"/>
                </mxCell>
                <mxCell id="1xpMTbBMg0d53cnwjYNg-221" value="" style="rounded=0;whiteSpace=wrap;html=1;fontSize=14;align=left;" vertex="1" parent="1xpMTbBMg0d53cnwjYNg-2">
                    <mxGeometry x="330" y="491.5" width="90" height="20" as="geometry"/>
                </mxCell>
                <mxCell id="1xpMTbBMg0d53cnwjYNg-222" value="" style="rounded=0;whiteSpace=wrap;html=1;fontSize=14;align=left;" vertex="1" parent="1xpMTbBMg0d53cnwjYNg-2">
                    <mxGeometry x="418.5" y="491.5" width="110" height="20" as="geometry"/>
                </mxCell>
                <mxCell id="1xpMTbBMg0d53cnwjYNg-223" value="" style="rounded=0;whiteSpace=wrap;html=1;fontSize=14;align=left;" vertex="1" parent="1xpMTbBMg0d53cnwjYNg-2">
                    <mxGeometry x="528.5" y="491.5" width="110" height="20" as="geometry"/>
                </mxCell>
                <mxCell id="1xpMTbBMg0d53cnwjYNg-224" value="" style="rounded=0;whiteSpace=wrap;html=1;fontSize=14;align=left;" vertex="1" parent="1xpMTbBMg0d53cnwjYNg-2">
                    <mxGeometry x="638.5" y="491.5" width="110" height="20" as="geometry"/>
                </mxCell>
                <mxCell id="1xpMTbBMg0d53cnwjYNg-225" value="" style="rounded=0;whiteSpace=wrap;html=1;fontSize=14;align=left;" vertex="1" parent="1xpMTbBMg0d53cnwjYNg-2">
                    <mxGeometry x="748.5" y="491.5" width="110" height="20" as="geometry"/>
                </mxCell>
                <mxCell id="1xpMTbBMg0d53cnwjYNg-226" value="" style="rounded=0;whiteSpace=wrap;html=1;fontSize=14;align=left;" vertex="1" parent="1xpMTbBMg0d53cnwjYNg-2">
                    <mxGeometry x="330" y="512" width="90" height="20" as="geometry"/>
                </mxCell>
                <mxCell id="1xpMTbBMg0d53cnwjYNg-227" value="" style="rounded=0;whiteSpace=wrap;html=1;fontSize=14;align=left;" vertex="1" parent="1xpMTbBMg0d53cnwjYNg-2">
                    <mxGeometry x="418.5" y="512" width="110" height="20" as="geometry"/>
                </mxCell>
                <mxCell id="1xpMTbBMg0d53cnwjYNg-228" value="" style="rounded=0;whiteSpace=wrap;html=1;fontSize=14;align=left;" vertex="1" parent="1xpMTbBMg0d53cnwjYNg-2">
                    <mxGeometry x="528.5" y="512" width="110" height="20" as="geometry"/>
                </mxCell>
                <mxCell id="1xpMTbBMg0d53cnwjYNg-229" value="" style="rounded=0;whiteSpace=wrap;html=1;fontSize=14;align=left;" vertex="1" parent="1xpMTbBMg0d53cnwjYNg-2">
                    <mxGeometry x="638.5" y="512" width="110" height="20" as="geometry"/>
                </mxCell>
                <mxCell id="1xpMTbBMg0d53cnwjYNg-230" value="" style="rounded=0;whiteSpace=wrap;html=1;fontSize=14;align=left;" vertex="1" parent="1xpMTbBMg0d53cnwjYNg-2">
                    <mxGeometry x="748.5" y="512" width="110" height="20" as="geometry"/>
                </mxCell>
                <mxCell id="1xpMTbBMg0d53cnwjYNg-231" value="" style="rhombus;whiteSpace=wrap;html=1;strokeWidth=2;fillWeight=-1;hachureGap=8;fillStyle=cross-hatch;fillColor=#006600;sketch=1;" vertex="1" parent="1xpMTbBMg0d53cnwjYNg-2">
                    <mxGeometry x="35" y="6.5" width="30" height="30" as="geometry"/>
                </mxCell>
            </root>
        </mxGraphModel>
    </diagram>
</mxfile>